<svg width="360" height="392" viewBox="0 0 360 392" fill="none" xmlns="http://www.w3.org/2000/svg">
<path d="M345.768 297.528L325.978 339.59L315.281 342.575L311.27 339.59V324.936L313.142 319.78L318.223 314.353V299.699L321.967 293.458L331.862 289.93L339.35 282.604V277.719L342.024 280.161L344.431 277.719V272.02L346.837 270.392V272.02L350.047 275.819V289.93L348.709 291.83L346.837 289.93L345.768 297.528Z" fill="black" stroke="#BDC8D5" stroke-width="5"/>
<path d="M9.61591 114.359L4 119.786L7.74394 123.857V127.113H6.94167L5.33712 133.354H8.27879L7.74394 134.44L9.88333 136.068L12.5576 137.425L10.953 138.51L13.0924 141.224L15.2318 140.138V145.294L19.2432 147.194L18.4409 148.822L20.3129 149.907L19.778 154.792L23.522 158.32V161.305L29.1379 164.29L42.5091 175.958L47.0553 178.4L52.4038 175.415L63.3682 173.245L76.2046 175.958L94.6568 167.817L110.167 166.732L115.516 171.888L114.714 172.973L119.26 178.4L126.748 177.315L134.236 175.958L136.642 180.029L139.584 179.486L138.514 181.385L140.119 185.184L136.642 195.768L138.514 196.582V199.567H137.177L136.108 206.351H133.166L138.514 216.12L151.083 228.06L152.42 234.844L154.56 235.386V236.743L153.223 237.286L159.908 250.311L157.502 253.568L162.583 263.88L161.245 271.206L155.362 277.99L152.153 289.93V303.227L166.861 326.564L169.001 346.102L185.581 372.424L186.116 376.766L183.709 378.937L186.116 385.993L188.523 384.907L193.871 388.435L205.638 384.093L215.533 385.45L226.764 382.193L240.67 372.424L246.821 364.826L255.111 357.499L258.855 346.102L257.518 344.745L272.761 335.519L274.366 325.479L271.424 317.609V312.182L272.227 313.267C278.645 310.662 282.389 304.765 283.458 302.142L298.969 295.086L305.12 285.86V282.604L304.317 277.448V271.749V266.865L306.189 262.251L302.178 258.724L300.039 254.925V249.497L301.376 247.869L300.039 246.241L302.178 242.171L298.167 236.743L301.376 227.788L306.189 218.019L310.201 216.12L309.131 213.949H311.805L313.945 212.049L324.374 198.21L334.536 189.798L344.431 177.315L353.523 155.877L356.465 149.907L357 143.666V136.339L354.058 134.711L348.71 138.782L342.559 139.324H339.35L337.478 140.681L334.536 142.038L331.327 141.224L326.246 144.209L324.374 142.581L321.433 138.782L318.224 137.153V136.339L319.026 135.525V133.897L318.224 131.183L316.886 130.641L309.398 122.771L307.259 120.6L304.852 119.786L301.643 117.887L300.841 115.987L303.248 115.716L300.573 113.274L299.236 117.615L293.086 102.148L285.865 97.2631L283.726 85.5946L280.249 79.6246L274.366 76.0969L273.564 73.6546L274.901 71.2124L272.227 69.0415L255.646 45.433L255.111 41.3625L264.204 51.1316L266.878 42.9907L261.53 32.6789L252.437 35.1212L250.298 32.4076H245.752L236.927 35.9353L228.636 33.493L219.277 32.4076L217.137 30.508L209.917 29.4226L209.382 27.5231L202.429 25.8949L194.673 29.4226V35.6639L189.325 38.3775L174.349 33.2217L171.14 28.0658L156.164 25.3522L148.409 19.9249L153.49 15.0404L150.548 10.6986L153.49 6.35681L150.548 7.71362L147.874 5L143.328 6.35681L139.852 8.52771L136.642 6.35681H133.433L128.085 8.52771L122.202 6.35681L113.644 8.52771L106.423 10.6986L100.273 13.4122L95.7265 16.6686H91.1803V13.4122L83.9599 15.0404L79.6811 11.7841L72.1932 21.8245C65.1332 22.6928 59.2677 29.4226 57.2174 32.6789L55.078 41.3625L43.8462 48.9607L38.7652 50.3175L35.0212 56.2875L29.9402 59.0011L27.2659 65.5138L21.1152 71.2124L11.2205 86.4087L15.7667 90.2077L13.3598 95.0922V104.861L11.2205 109.746L9.61591 114.359Z" fill="black" stroke="#BDC8D5" stroke-width="5"/>
<path d="M14.1621 86.4086H11.2205L21.1152 71.2124L27.2659 65.5138L29.9402 59.0011L35.0212 56.2874L38.7652 50.3175L43.8462 48.9607L55.078 41.3625L57.2174 32.6789C60.6939 26.4376 68.4492 21.8245 72.1932 21.8245L79.6811 11.7841L83.9598 15.0404L91.1803 13.4122V16.6686H95.7265L100.273 13.4122L106.423 10.6986L122.202 6.35681L128.085 8.52771L133.433 6.35681H136.642L139.852 8.52771L143.328 6.35681L147.874 5L150.548 7.71362L153.49 6.35681L150.548 10.6986L153.49 15.0404L148.409 19.9249L156.164 25.3522L171.14 28.0658L174.349 33.2217L189.325 38.3775L194.673 35.6639V29.4226L202.429 25.8949L209.382 27.5231L209.917 29.4226L217.137 30.508L219.277 32.4076L228.636 33.493L236.926 35.9353L245.752 32.4076H250.298L252.437 35.1212L261.53 32.6789L266.878 42.9907L264.204 51.1316L255.111 41.3625L255.646 45.433L272.227 69.0415L274.901 71.2124L273.564 73.6546L274.366 76.0969L280.249 79.6246L283.726 85.5946L285.865 97.2631L293.086 102.148L288.272 107.304L285.33 107.032L283.726 131.183C279.875 130.315 277.842 138.42 277.308 142.581L275.97 141.224L274.366 142.581V149.907H271.959L271.157 146.108L270.087 144.48L268.215 143.937L267.68 134.168H266.076L266.343 135.254L262.599 135.525L263.669 140.952L257.518 148.279L251.902 144.48L249.228 146.651L248.961 148.551L231.578 149.093L229.171 145.566H225.427L222.218 149.636H217.405V147.194L213.126 140.952L210.452 131.726L206.708 130.912L213.126 115.173L217.939 114.088L217.672 94.2782L217.137 93.7354L204.033 86.9514L186.116 77.7251L175.954 73.1119L166.594 77.7251L163.117 74.4687L154.827 73.1119L132.364 86.1373L122.736 94.5495L109.365 96.9918V92.65L102.68 91.0218L87.1689 76.0969L58.5545 54.3879L56.6826 60.3579H41.4394L39.0326 73.1119L33.1492 76.0969L32.0795 84.2377H15.2318L14.1621 86.4086Z" fill="#48A8EE" stroke="white"/>
<path d="M37.9626 51.6743H58.2869L59.624 46.5184L84.4945 35.1212V31.5935L88.7732 29.9653H96.5286V17.2113L95.7263 16.6686" stroke="#E5E5E5"/>
<path d="M155.362 73.1119L153.49 68.7701L146.804 67.1419L143.061 59.2724L145.2 57.3729L146.002 50.3175L144.13 39.7344L148.676 36.478L149.479 31.5935L155.362 28.3372V25.0808" stroke="#E5E5E5"/>
<path d="M145.2 6.08533L141.723 9.07031L141.189 17.2112L137.177 21.2816L140.386 28.0657L143.595 29.6938L144.933 38.9202" stroke="#E5E5E5"/>
<path d="M217.672 94.0068V91.0218H222.486V80.9814H263.937L267.948 81.7955L274.099 76.0969" stroke="#E5E5E5"/>
<path d="M219.544 32.9503L218.474 39.1916L220.346 44.0762L222.485 80.9814" stroke="#E5E5E5"/>
</svg>
